PathFileType	4	(X/Y/Z)	 D:\Google Drive\Share to the world\OpenSim\ScaleTool\TRC\Walk_Mkrs3.trc
DataRate	CameraRate	NumFrames	NumMarkers	Units	OrigDataRate	OrigDataStartFrame	OrigNumFrames
100	100	10	34	m	100	538	614
Frame#	time	C7			T10			CLAV			STRN			LSHO			LELB			LWRA			LWRB			LFIN			RSHO			RELB			RWRA			RWRB			RFIN			LASI			RASI			LPSI			RPSI			LTHI			LKNE			LTIB			LANK			LHEE			LTOE			RTHI			RKNE			RTIB			RANK			RHEE			RTOE			RPINKY			LPINKY			INRKNE			INLKNE			
		X1	Y1	Z1	X2	Y2	Z2	X3	Y3	Z3	X4	Y4	Z4	X5	Y5	Z5	X6	Y6	Z6	X7	Y7	Z7	X8	Y8	Z8	X9	Y9	Z9	X10	Y10	Z10	X11	Y11	Z11	X12	Y12	Z12	X13	Y13	Z13	X14	Y14	Z14	X15	Y15	Z15	X16	Y16	Z16	X17	Y17	Z17	X18	Y18	Z18	X19	Y19	Z19	X20	Y20	Z20	X21	Y21	Z21	X22	Y22	Z22	X23	Y23	Z23	X24	Y24	Z24	X25	Y25	Z25	X26	Y26	Z26	X27	Y27	Z27	X28	Y28	Z28	X29	Y29	Z29	X30	Y30	Z30	X31	Y31	Z31	X32	Y32	Z32	X33	Y33	Z33	X34	Y34	Z34	

538	5.3700	0.154230	1.489790	0.108480	0.131210	1.240570	0.116170	0.301280	1.395560	0.133700	0.339160	1.244510	0.138380	0.246570	1.451110	-0.057930	0.350020	1.157370	-0.137190	0.531260	0.984770	-0.076270	0.492760	0.953710	-0.121150	0.565770	0.917000	-0.120360	0.197530	1.467160	0.292200	0.140290	1.156280	0.397590	0.219960	0.916650	0.392770	0.169280	0.919200	0.429540	0.196400	0.850230	0.436190	0.332410	0.972940	0.021830	0.305420	0.977360	0.286550	0.164630	1.076250	0.083910	0.158140	1.076520	0.170620	0.275200	0.671290	-0.016790	0.248010	0.481230	0.005070	0.220030	0.279870	-0.001880	0.221490	0.074980	0.046530	0.164610	0.089620	0.077500	0.364900	0.037010	0.119140	0.263230	0.672590	0.315510	0.279320	0.484000	0.297190	0.248240	0.309220	0.311900	0.236180	0.078020	0.275380	0.188530	0.097970	0.228260	0.394120	0.038450	0.248420	0.337940	0.031800	0.314480	0.327820	0.025260	0.026920	0.289400	0.479790	0.193390	0.227100	0.474850	0.108610	
539	5.3800	0.155560	1.489270	0.109750	0.133250	1.239960	0.117610	0.302870	1.395390	0.134850	0.341160	1.244440	0.139600	0.247570	1.450360	-0.056900	0.350060	1.156030	-0.135940	0.530010	0.981900	-0.075330	0.491240	0.951230	-0.120220	0.563890	0.913890	-0.119520	0.199040	1.466810	0.293440	0.143490	1.155560	0.398710	0.224550	0.916490	0.392980	0.174050	0.918570	0.430010	0.201880	0.849880	0.436460	0.335190	0.972600	0.022890	0.307890	0.976960	0.287750	0.167190	1.075790	0.084860	0.160630	1.076140	0.171600	0.275580	0.670770	-0.016630	0.246500	0.481220	0.005430	0.218860	0.279960	-0.001960	0.221260	0.075020	0.046550	0.164390	0.089530	0.077630	0.364840	0.037040	0.119110	0.263330	0.672350	0.316030	0.278390	0.483570	0.297580	0.247810	0.308730	0.312060	0.236050	0.077640	0.275260	0.188390	0.097510	0.228210	0.394170	0.038400	0.248320	0.337910	0.031810	0.314450	0.327780	0.025290	0.026960	0.288280	0.479480	0.193810	0.225270	0.474810	0.108730	
540	5.3900	0.156840	1.488800	0.111020	0.135230	1.239420	0.118920	0.304410	1.395270	0.135980	0.343100	1.244410	0.140770	0.248510	1.449690	-0.055880	0.349910	1.154690	-0.134620	0.528340	0.978810	-0.074360	0.489220	0.948580	-0.119250	0.561480	0.910510	-0.118680	0.200490	1.466480	0.294660	0.146760	1.154840	0.399810	0.229300	0.916400	0.393170	0.179020	0.917990	0.430470	0.207610	0.849600	0.436750	0.337900	0.972200	0.023970	0.310160	0.976760	0.288950	0.169700	1.075400	0.085640	0.162980	1.075860	0.172400	0.275930	0.670230	-0.016420	0.245000	0.481220	0.005810	0.217670	0.280050	-0.002010	0.221010	0.075060	0.046570	0.164160	0.089440	0.077770	0.364780	0.037070	0.119070	0.263630	0.672330	0.316600	0.277540	0.483350	0.298130	0.247380	0.308450	0.312440	0.235940	0.077390	0.275310	0.188260	0.097230	0.228350	0.394190	0.038390	0.248310	0.337890	0.031800	0.314520	0.327730	0.025310	0.026980	0.287270	0.479370	0.194420	0.223450	0.474780	0.108870	
541	5.4000	0.158100	1.488370	0.112280	0.137150	1.238940	0.120080	0.305920	1.395200	0.137080	0.344990	1.244430	0.141880	0.249410	1.449130	-0.054880	0.349570	1.153380	-0.133220	0.526240	0.975510	-0.073380	0.486730	0.945780	-0.118230	0.558520	0.906890	-0.117820	0.201900	1.466180	0.295860	0.150090	1.154140	0.400890	0.234210	0.916370	0.393330	0.184180	0.917470	0.430930	0.213550	0.849420	0.437060	0.340490	0.971740	0.025070	0.312230	0.976720	0.290120	0.172150	1.075070	0.086250	0.165210	1.075690	0.173030	0.276280	0.669690	-0.016140	0.243570	0.481200	0.006200	0.216520	0.280140	-0.002050	0.220760	0.075100	0.046580	0.163950	0.089350	0.077910	0.364720	0.037110	0.119030	0.264160	0.672470	0.317210	0.276740	0.483290	0.298810	0.246940	0.308320	0.312980	0.235850	0.077250	0.275490	0.188130	0.097080	0.228640	0.394190	0.038400	0.248360	0.337880	0.031760	0.314670	0.327670	0.025340	0.027000	0.286370	0.479420	0.195190	0.221700	0.474740	0.109040	
542	5.4100	0.159320	1.487990	0.113500	0.139010	1.238530	0.121080	0.307400	1.395160	0.138140	0.346810	1.244460	0.142900	0.250300	1.448680	-0.053900	0.349050	1.152100	-0.131770	0.523740	0.972040	-0.072370	0.483760	0.942860	-0.117180	0.555010	0.903050	-0.116960	0.203280	1.465900	0.297000	0.153440	1.153470	0.401930	0.239290	0.916410	0.393510	0.189510	0.917020	0.431400	0.219660	0.849320	0.437380	0.342950	0.971240	0.026170	0.314140	0.976830	0.291260	0.174520	1.074820	0.086730	0.167310	1.075610	0.173530	0.276640	0.669170	-0.015800	0.242280	0.481170	0.006610	0.215440	0.280230	-0.002060	0.220530	0.075140	0.046610	0.163740	0.089260	0.078060	0.364650	0.037140	0.118980	0.264870	0.672730	0.317860	0.275970	0.483340	0.299570	0.246480	0.308280	0.313640	0.235770	0.077160	0.275760	0.188010	0.097000	0.229020	0.394180	0.038410	0.248460	0.337870	0.031700	0.314870	0.327610	0.025360	0.027010	0.285560	0.479590	0.196070	0.220110	0.474690	0.109250	
543	5.4200	0.160530	1.487630	0.114690	0.140830	1.238160	0.121920	0.308850	1.395140	0.139150	0.348590	1.244510	0.143830	0.251200	1.448350	-0.052950	0.348350	1.150870	-0.130270	0.520820	0.968430	-0.071350	0.480330	0.939840	-0.116090	0.550970	0.899000	-0.116070	0.204640	1.465630	0.298100	0.156810	1.152830	0.402940	0.244560	0.916500	0.393710	0.194980	0.916650	0.431870	0.225900	0.849310	0.437720	0.345260	0.970710	0.027250	0.315920	0.977030	0.292360	0.176790	1.074630	0.087140	0.169300	1.075590	0.173950	0.277040	0.668670	-0.015380	0.241190	0.481110	0.007010	0.214490	0.280300	-0.002050	0.220320	0.075170	0.046640	0.163560	0.089170	0.078210	0.364590	0.037180	0.118920	0.265700	0.673030	0.318520	0.275210	0.483450	0.300360	0.245990	0.308290	0.314330	0.235690	0.077110	0.276060	0.187890	0.096970	0.229440	0.394160	0.038430	0.248580	0.337860	0.031630	0.315100	0.327550	0.025380	0.027020	0.284760	0.479820	0.196990	0.218730	0.474610	0.109470	
544	5.4300	0.161720	1.487300	0.115830	0.142590	1.237820	0.122640	0.310280	1.395120	0.140100	0.350320	1.244550	0.144670	0.252140	1.448120	-0.052020	0.347480	1.149670	-0.128750	0.517530	0.964690	-0.070320	0.476470	0.936750	-0.114960	0.546420	0.894790	-0.115160	0.206010	1.465350	0.299140	0.160170	1.152230	0.403910	0.250020	0.916640	0.393960	0.200560	0.916360	0.432350	0.232260	0.849380	0.438060	0.347390	0.970150	0.028290	0.317620	0.977260	0.293390	0.178930	1.074490	0.087520	0.171190	1.075600	0.174360	0.277490	0.668210	-0.014900	0.240320	0.481040	0.007430	0.213700	0.280370	-0.001990	0.220140	0.075190	0.046670	0.163400	0.089090	0.078350	0.364520	0.037220	0.118870	0.266560	0.673340	0.319180	0.274420	0.483580	0.301130	0.245470	0.308310	0.314990	0.235610	0.077070	0.276360	0.187760	0.096950	0.229830	0.394140	0.038450	0.248690	0.337850	0.031560	0.315310	0.327490	0.025400	0.027020	0.283950	0.480060	0.197900	0.217610	0.474520	0.109730	
545	5.4400	0.162910	1.487000	0.116910	0.144290	1.237510	0.123250	0.311670	1.395100	0.140980	0.351980	1.244570	0.145410	0.253130	1.447970	-0.051140	0.346450	1.148500	-0.127240	0.513880	0.960840	-0.069270	0.472210	0.933600	-0.113800	0.541390	0.890420	-0.114200	0.207380	1.465070	0.300110	0.163500	1.151660	0.404860	0.255620	0.916830	0.394250	0.206200	0.916120	0.432820	0.238700	0.849530	0.438420	0.349330	0.969600	0.029260	0.319270	0.977460	0.294360	0.180920	1.074390	0.087950	0.173000	1.075620	0.174820	0.278000	0.667800	-0.014340	0.239700	0.480960	0.007870	0.213090	0.280420	-0.001890	0.219980	0.075200	0.046720	0.163260	0.089010	0.078480	0.364460	0.037250	0.118820	0.267350	0.673600	0.319850	0.273590	0.483680	0.301850	0.244900	0.308330	0.315590	0.235520	0.077040	0.276610	0.187620	0.096920	0.230160	0.394120	0.038460	0.248770	0.337840	0.031490	0.315480	0.327430	0.025410	0.027010	0.283080	0.480270	0.198750	0.216770	0.474400	0.110010	
546	5.4500	0.164090	1.486730	0.117930	0.145930	1.237240	0.123810	0.313040	1.395060	0.141790	0.353580	1.244570	0.146060	0.254200	1.447900	-0.050300	0.345260	1.147340	-0.125760	0.509890	0.956910	-0.068220	0.467580	0.930400	-0.112640	0.535930	0.885920	-0.113210	0.208760	1.464780	0.301030	0.166810	1.151100	0.405780	0.261290	0.917100	0.394570	0.211890	0.915940	0.433280	0.245180	0.849730	0.438770	0.351060	0.969080	0.030130	0.320910	0.977580	0.295260	0.182740	1.074330	0.088470	0.174740	1.075640	0.175360	0.278560	0.667450	-0.013730	0.239330	0.480880	0.008330	0.212670	0.280470	-0.001750	0.219860	0.075210	0.046780	0.163150	0.088940	0.078610	0.364400	0.037270	0.118780	0.268000	0.673790	0.320510	0.272720	0.483760	0.302500	0.244290	0.308330	0.316110	0.235430	0.077010	0.276800	0.187490	0.096860	0.230390	0.394110	0.038470	0.248840	0.337840	0.031440	0.315610	0.327380	0.025430	0.027010	0.282150	0.480440	0.199510	0.216230	0.474280	0.110330	
547	5.4600	0.165260	1.486490	0.118890	0.147510	1.236990	0.124340	0.314370	1.395010	0.142530	0.355120	1.244550	0.146640	0.255320	1.447860	-0.049500	0.343930	1.146180	-0.124330	0.505610	0.952910	-0.067160	0.462630	0.927180	-0.111490	0.530080	0.881320	-0.112180	0.210130	1.464470	0.301900	0.170080	1.150560	0.406670	0.266970	0.917430	0.394910	0.217590	0.915800	0.433750	0.251650	0.849970	0.439100	0.352590	0.968590	0.030880	0.322550	0.977600	0.296100	0.184390	1.074280	0.089100	0.176420	1.075640	0.176020	0.279170	0.667160	-0.013060	0.239200	0.480800	0.008830	0.212410	0.280510	-0.001550	0.219770	0.075200	0.046860	0.163070	0.088890	0.078740	0.364360	0.037300	0.118740	0.268440	0.673920	0.321180	0.271790	0.483800	0.303090	0.243620	0.308310	0.316540	0.235340	0.076980	0.276940	0.187350	0.096790	0.230540	0.394100	0.038470	0.248880	0.337830	0.031400	0.315690	0.327340	0.025440	0.027010	0.281170	0.480540	0.200200	0.215980	0.474150	0.110690	
